<?xml version="1.0" encoding="UTF-8"?>
<svg id="Calque_2" data-name="Calque 2" xmlns="http://www.w3.org/2000/svg" viewBox="0 0 258.47 219.17">
  <defs>
    <style>
      .cls-1 {
        stroke-width: 2.05px;
      }

      .cls-1, .cls-2, .cls-3, .cls-4, .cls-5 {
        stroke: #ffc003;
        stroke-miterlimit: 10;
      }

      .cls-1, .cls-2, .cls-3, .cls-4, .cls-5, .cls-6 {
        fill: #fff;
      }

      .cls-2 {
        stroke-width: 1.82px;
      }

      .cls-3 {
        stroke-width: 1.88px;
      }

      .cls-4 {
        stroke-width: 1.86px;
      }

      .cls-5 {
        stroke-width: 1.98px;
      }
    </style>
  </defs>
  <g id="Brand_Guideline_Sheet" data-name="Brand Guideline Sheet">
    <rect class="cls-6" x="4.56" width="246.5" height="219.17"/>
    <g>
      <path class="cls-2" d="M254.68,196.64c-12.29,1.85-25.8,3.32-40.23,3.83-7.21.27-14.65.3-22.25.05-7.6-.27-15.42-.61-23.09-2.13-3.83-.78-7.62-1.83-11.21-3.4-3.6-1.54-7.04-3.54-10.23-5.91-6.4-4.74-11.81-10.94-16.03-17.89-4.24-6.96-7.2-14.72-9.12-22.77-.95-4.01-1.65-8.15-2.12-12.24,0-.92.04-1.85.07-2.78,2.24-1.4,4.1-3.63,5.56-6.93,1.14-3.52.35-6.62-2.28-9.69-1.41-1.78-3.1-1.66-4.94-.47-2.19-1.19-4.24-1.06-6.12.59-3.05-.93-4.93.47-5.28,4.68-2.71,1.88-3.37,4.57-2.68,7.64.37,1.68,1.64,2.97,3.22,3.22l4.5.69c.16,1.07.33,2.36.45,3.81l.03.27c.05.35.1.69.15,1.04.13.84.23,1.7.39,2.56.28,1.73.62,3.5.99,5.3.77,3.6,1.73,7.34,2.98,11.14,2.48,7.6,6.18,15.55,11.48,22.87,5.28,7.32,12.19,14.12,20.72,19,4.24,2.45,8.94,4.33,13.64,5.6,4.71,1.29,9.44,2.05,14.07,2.56,4.64.51,9.12.75,13.55.97,4.44.21,8.83.3,13.15.33,17.27.08,33.3-1.37,46.28-3.35"/>
      <path class="cls-2" d="M126.48,127.18l4.18-.32c1.68-.25,3.03.2,4.12,1.16,1.1.73,2.21,1.17,3.29,1.31.37.05.75,0,1.1-.1,3.68-1.15,6.32-4.67,5.16-4.25l-4.23.51c-1.46-.31-2.12-.97-2.07-1.92.04-.8.76-1.48,1.64-1.78l3.28-1.1c1.51-.8-4.37-2.71-8.49-.7-.17.08-.33.19-.48.31-1.54,1.2-2.1,1.59-4.83,1.46l-2.48.1c.78,1.64.3,3.56-.19,5.32Z"/>
      <path class="cls-2" d="M87.82,126.89c1.05-.22,2.04-.52,2.81-.77,1.86-.6,3.72,1.22,3.4,3.4-.05.38-.16.63-.26.65-1.55.8-3.1,1.61-4.65,2.45-.7,1.14,1.32,1.82,5.67,1.99.32.01.65-.03.95-.15,1.18-.5,2.07-1.4,2.74-2.59.52-1.02,1.38-1.68,2.61-1.95l4.06-.21c-.77-1.95-.82-4.23-.16-6.21l-2.77-.12c-1.78.35-4.3-.26-7.34-1.94-.29-.16-.61-.29-.93-.31-2.25-.14-4.37,1.37-5.63,2.91-1.28,1.53-1.63,3.09-.5,2.85Z"/>
    </g>
    <g>
      <path class="cls-1" d="M258.05,15.04c-3.65-1.64-7.47-3.16-11.49-4.36-4.02-1.19-8.25-2.09-12.64-2.25-4.38-.16-8.96.46-13.16,2.42-4.22,1.92-7.84,5.23-10.5,9.22-2.65,4.01-4.33,8.78-4.63,13.78-.17,2.49.07,5.06.69,7.53.61,2.48,1.63,4.85,2.85,7.09,2.44,4.5,5.7,8.44,8.76,12.44,3.08,4,6.1,8.09,8.84,12.39,2.74,4.29,5.25,8.78,7.2,13.51,1.93,4.73,3.3,9.7,3.85,14.78.1,1.27.2,2.55.23,3.82,0,1.27,0,2.53-.13,3.8-.06,1.27-.3,2.52-.48,3.77-.11.63-.28,1.24-.41,1.86-.13.62-.28,1.24-.48,1.84l-.56,1.82-.7,1.76c-.21.6-.49,1.16-.78,1.72-.29.56-.53,1.15-.86,1.68-1.22,2.2-2.74,4.2-4.42,6.03-1.76,1.75-3.69,3.3-5.83,4.51-.53.31-1.1.54-1.65.82l-.83.4c-.28.12-.58.21-.87.31l-1.73.61-1.8.42c-2.38.55-4.75.66-7.1.31-2.34-.35-4.64-1.13-6.83-2.23-4.37-2.24-8.33-5.73-11.79-9.58-.57-.84-1.13-1.69-1.66-2.56,1.22-2.71,1.62-5.87,1.06-9.82-1-3.94-3.62-6.43-8.01-7.81-2.45-.87-3.96.29-4.97,2.55-2.8.2-4.66,1.58-5.44,4.28-3.44.99-4.4,3.42-2.2,7.62-1.46,3.42-.45,6.4,2.14,8.97,1.42,1.4,3.45,1.89,5.1,1.15,1.56-.69,3.13-1.4,4.68-2.13.84.92,1.81,2.05,2.92,3.33l.21.24.08.09.29.31.59.61c.79.83,1.63,1.64,2.49,2.45,1.74,1.62,3.63,3.2,5.74,4.67,2.11,1.47,4.44,2.83,7.02,3.91,2.58,1.08,5.44,1.88,8.45,2.18,2.99.31,6.17.11,9.11-.61.73-.18,1.46-.36,2.2-.55.73-.21,1.44-.5,2.17-.75,1.47-.47,2.83-1.23,4.24-1.91,5.48-3.03,10.19-7.71,13.36-13.24.42-.68.82-1.38,1.15-2.1.35-.72.71-1.43,1.04-2.16.58-1.48,1.22-2.96,1.65-4.5.52-1.52.84-3.09,1.2-4.66.16-.79.26-1.59.39-2.38l.18-1.2.1-1.21c.6-6.52-.23-12.91-1.9-19.1-1.67-6.18-4.33-11.95-7.32-17.35-3.05-5.37-6.46-10.4-9.97-15.15-1.74-2.38-3.56-4.73-5.2-6.91-1.63-2.18-3.11-4.28-4.26-6.31-1.18-2.03-2-3.98-2.48-5.83-.21-.92-.38-1.82-.43-2.71-.06-.91-.05-1.87.04-2.8.36-3.77,1.97-7.49,4.27-10.31,2.35-2.9,5.07-4.56,8.19-5.43,1.54-.48,3.28-.62,5-.73.91.04,1.79.01,2.7.08.93.12,1.82.13,2.75.31,3.69.55,7.39,1.61,10.9,2.85"/>
      <path class="cls-1" d="M191.03,113.29l3.75-2.85c1.44-1.25,2.98-1.67,4.55-1.51,1.45-.04,2.72-.37,3.79-.92.37-.19.7-.47.97-.78,2.81-3.28,3.39-7.9,2.52-6.85l-3.71,3.05c-1.54.62-2.56.44-3.06-.47-.42-.77-.15-1.83.51-2.65l2.46-3.01c.47-.87-.97-.82-2.88-.06-1.91.77-4.29,2.28-5.62,4.5-.11.18-.2.38-.27.58-.75,2.08-1.05,2.78-3.72,4.3l-2.3,1.59c1.73,1.08,2.41,3.17,2.99,5.08Z"/>
      <path class="cls-1" d="M154.18,136.45c.86-.85,1.62-1.73,2.2-2.45,1.39-1.7,4.29-1.06,5.38,1.29.19.41.25.72.16.8-.96,1.73-1.88,3.5-2.78,5.28.11,1.6,2.47,1.05,6.71-1.45.31-.18.6-.43.79-.74.76-1.23,1.02-2.68.86-4.28-.17-1.33.21-2.5,1.2-3.51l3.71-2.68c-1.96-1.43-3.42-3.6-3.99-5.89l-2.71,1.56c-1.47,1.41-4.27,2.33-8.14,2.57-.37.02-.76.1-1.07.27-2.21,1.23-3.35,3.92-3.6,6.17-.27,2.23.35,3.99,1.28,3.06Z"/>
    </g>
    <g>
      <path class="cls-3" d="M32.5,7.06c-1.76,8.41-1.46,19.79-2.66,31.57-.07.99-.14,1.98-.21,2.97-2.36,1.4-4.34,3.81-5.74,7.59-1.04,4.02.09,7.6,3.17,10.65,1.68,1.78,3.39,1.38,5.12-.09,2.4.98,4.47.53,6.2-1.35,3.25.55,4.95-1.08,4.98-5.13,2.66-2.04,3.18-4.54,2.45-7.38-.39-1.55-1.68-2.75-3.3-3l-4.62-.74c-.15-1.14-.25-2.53-.3-4.12-.07-4.03.38-9.6,1.02-15.11.63-5.52,1.43-10.99,1.84-14.91"/>
      <path class="cls-3" d="M23.41,48.39l-4.3.41c-1.72.31-3.14-.21-4.3-1.43-1.16-.92-2.3-1.53-3.41-1.76-.38-.08-.78-.05-1.14.08-3.83,1.29-6.37,6.15-5.19,5.58l4.35-.71c1.52.4,2.26,1.21,2.26,2.43,0,1.02-.66,1.92-1.54,2.35l-3.27,1.63c-1.48,1.24,4.83,3.08,8.81.26.16-.11.32-.26.46-.41,1.47-1.57,2.02-2.05,4.85-2.08l2.55-.29c-.95-1.8-.57-4.05-.12-6.06Z"/>
      <path class="cls-3" d="M63.28,47.18c-1.08.24-2.09.55-2.88.81-1.89.63-3.88-.82-3.56-2.7.06-.32.16-.54.28-.56l4.81-2.16c.75-.94-1.3-1.43-5.77-1.59-.33-.01-.67.02-.98.13-1.23.42-2.19,1.2-2.91,2.25-.55.9-1.43,1.51-2.7,1.79l-4.18.29c.8,1.81.91,3.91.35,5.82l2.86-.09c1.81-.46,4.44-.05,7.66,1.13.31.11.65.19.98.18,4.61-.22,8.38-5.83,6.04-5.3Z"/>
    </g>
    <g>
      <path class="cls-3" d="M2.62,146.93c6.98-2.21,14.44-5.32,22.04-9.36,7.59-4.05,15.22-9.16,22.7-15.05,7.46-5.91,14.73-12.68,21.56-20.14.84-.94,1.69-1.88,2.54-2.83.86-.94,1.71-1.89,2.51-2.88,1.61-1.98,3.31-3.91,4.87-5.95,1.54-2.05,3.17-4.08,4.68-6.15l1.96-2.27c1.37.14,2.82.02,4.36-.42,1.57-.43,3.16-1.23,4.85-2.42,1.61-1.39,2.76-3,3.37-4.82.57-1.84.66-3.87.25-6.03-.37-2.46-2.03-3.05-4.3-2.77-1.44-2.15-3.42-2.9-5.91-2.32-2.39-2.24-4.73-1.86-6.95,1.38-3.29.14-5.19,1.74-6.16,4.39-.52,1.46-.22,3.11.94,4.27l3.27,3.33c-.53.92-1.21,1.99-2.02,3.16l-.15.22-.34.51c-.26.4-.56.78-.84,1.18-.58.79-1.16,1.6-1.77,2.43-.6.82-1.22,1.67-1.85,2.53-.64.85-1.34,1.68-2.03,2.54-5.5,6.89-12.37,14.17-20.05,20.79-7.67,6.64-16.13,12.59-24.4,17.32-8.25,4.79-16.34,8.25-23.02,10.71"/>
      <path class="cls-3" d="M94.6,80.42l3.73,2.19c1.58.75,2.41,2.04,2.61,3.79.35,1.48.86,2.68,1.6,3.55.25.29.59.51.96.62,3.93,1.24,8.99-1.61,7.69-1.8l-3.95-1.94c-.98-1.25-1.08-2.39-.33-3.47.62-.9,1.72-1.29,2.71-1.17l3.67.44c.97-.13.45-1.54-.95-2.86-1.4-1.32-3.67-2.55-6.13-2.45-.2,0-.42.05-.61.1-2.12.55-2.85.63-5.19-.96l-2.26-1.22c-.32,2.07-1.98,3.75-3.54,5.18Z"/>
      <path class="cls-3" d="M61.44,58.25c1.01.44,2,.79,2.79,1.05,1.89.6,2.74,2.82,1.46,4.04-.22.21-.42.31-.52.26-1.69-.39-3.37-.79-5.06-1.21-1.14.22.25,1.77,3.76,4.53.26.2.55.38.86.49,1.23.42,2.44.41,3.63.05.96-.35,1.99-.31,3.17.22l3.56,2.23c.36-1.88,1.44-3.58,2.99-4.74l-2.4-1.55c-1.75-.67-3.65-2.47-5.73-5.19-.2-.26-.44-.51-.72-.69-1.98-1.22-4.44-1.25-6.19-.96-1.75.3-2.71,1-1.61,1.48Z"/>
    </g>
    <g>
      <path class="cls-4" d="M5,192.95c3.66-3.75,8.08-7.37,13.38-10.09,2.64-1.36,5.46-2.55,8.44-3.5,2.98-.93,6.1-1.66,9.31-2.19,6.43-1.08,13.23-1.33,20.17-1.21,3.47.06,6.98.23,10.53.45,1.77.12,3.55.24,5.33.36l2.9.42c1.22,2.43,3.42,4.58,7.11,6.23,3.95,1.31,7.78.4,11.07-2.57,1.92-1.63,1.52-3.33.08-5.08,1.06-2.36.62-4.41-1.15-6.18.61-3.21-.89-4.92-4.74-5.17-1.81-2.74-4.14-3.42-6.97-2.91-1.54.28-2.82,1.45-3.19,3.04l-1.08,4.51c-1.07.06-2.34.06-3.78,0-2.59-.08-5.47-.16-8.56-.25-6.41-.21-13.79-.47-21.55.01-7.74.47-15.98,1.84-23.45,4.88-3.73,1.5-7.22,3.39-10.29,5.5-3.11,2.08-5.69,4.46-7.9,6.68"/>
      <path class="cls-4" d="M81.32,183.82l.1,4.28c.19,1.72-.46,3.1-1.76,4.15-1.01,1.08-1.7,2.16-2.02,3.24-.11.37-.1.76,0,1.13.5,1.94,1.91,3.63,3.15,4.68,1.27,1.04,2.35,1.45,2.1.85l-.41-4.35c.52-1.47,1.4-2.14,2.68-2.08,1.07.05,1.95.78,2.36,1.67l1.54,3.32c1.27,1.53,3.65-4.64.83-8.71-.11-.17-.26-.33-.4-.47-1.57-1.54-2.03-2.1-1.88-4.9l-.14-2.54c-1.92.84-4.18.31-6.15-.28Z"/>
      <path class="cls-4" d="M82.83,144.32c.16,1.08.38,2.1.57,2.9.47,1.91-.97,3.8-2.75,3.33-.3-.08-.5-.2-.51-.31l-1.74-4.91c-.86-.82-1.48,1.18-1.98,5.59-.04.32-.03.67.05.98.34,1.25,1.01,2.24,2,3.04.85.61,1.38,1.53,1.55,2.8l-.02,4.16c1.82-.65,3.85-.63,5.64.05l.07-2.84c-.33-1.82.2-4.4,1.41-7.51.12-.3.2-.63.2-.96,0-2.29-1.23-4.45-2.36-5.75-1.16-1.3-2.29-1.75-2.12-.57Z"/>
    </g>
    <g>
      <path class="cls-5" d="M157.18,6.98c1.06,6.78,2.29,14.64,2.55,23.17.14,4.26.08,8.66-.97,12.73-.52,2.05-1.33,4.03-2.38,5.88-1.02,1.82-2.3,3.62-3.69,5.4-.63.77-1.3,1.53-1.98,2.31-2.86-.33-6.04.4-9.59,2.53-3.4,2.56-4.76,6.11-4.26,10.59.2,2.54,1.84,3.38,4.22,3.36,1.3,2.4,3.26,3.45,5.93,3.07,2.26,2.64,4.75,2.46,7.5-.93,3.54.05,5.68-1.75,6.96-4.66.7-1.59.43-3.44-.76-4.7l-3.39-3.58c.61-1.06,1.42-2.31,2.4-3.78.94-1.45,1.97-3.02,3.04-4.93,1.07-1.91,2.1-4.03,2.89-6.34.81-2.31,1.36-4.81,1.72-7.4.35-2.57.5-5.04.56-7.48.27-9.56-.74-19.16-2.24-25.97"/>
      <path class="cls-5" d="M141.23,58.04l-3.84-2.43c-1.63-.86-2.48-2.18-2.7-3.88-.4-1.47-.98-2.67-1.78-3.55-.27-.3-.62-.53-1.01-.66-4-1.4-9.06.69-7.73,1.01l4.05,2.24c1.02,1.28,1.13,2.39.38,3.34-.63.8-1.74,1.05-2.73.81l-3.71-.89c-1.97-.04,2.03,5.52,7.09,5.97.21.02.43,0,.63-.02,2.2-.25,2.96-.28,5.3,1.55l2.28,1.44c.38-2.05,2.11-3.59,3.76-4.92Z"/>
      <path class="cls-5" d="M175,82.96c-1.05-.49-2.09-.89-2.92-1.17-1.98-.69-2.62-3.28-1.08-4.73.27-.25.5-.37.61-.32l5.46,1.19c1.28-.36-.09-2.14-3.72-5.14-.27-.22-.58-.41-.91-.52-1.31-.41-2.63-.34-3.94.12-1.06.44-2.21.4-3.44-.18l-3.66-2.46c-.54,2.07-1.85,3.95-3.6,5.19l2.4,1.81c1.79.81,3.68,2.89,5.48,6.07.17.31.39.6.67.81,3.89,2.93,10.93.4,8.63-.68Z"/>
    </g>
  </g>
</svg>