<?xml version="1.0" encoding="UTF-8"?>
<svg id="Calque_2" data-name="Calque 2" xmlns="http://www.w3.org/2000/svg" viewBox="0 0 188.42 153.75">
  <defs>
    <style>
      .cls-1 {
        stroke-width: .73px;
      }

      .cls-1, .cls-2, .cls-3, .cls-4, .cls-5 {
        stroke-miterlimit: 10;
      }

      .cls-1, .cls-3, .cls-4, .cls-5 {
        stroke: #ffc200;
      }

      .cls-1, .cls-6 {
        fill: #ffc200;
      }

      .cls-7, .cls-3, .cls-4, .cls-5 {
        fill: #fff;
      }

      .cls-2 {
        fill: none;
        stroke: #fff;
        stroke-width: .56px;
      }

      .cls-3 {
        stroke-width: 2.91px;
      }

      .cls-4 {
        stroke-width: 1.93px;
      }

      .cls-5 {
        stroke-width: 1.95px;
      }
    </style>
  </defs>
  <g id="Brand_Guideline_Sheet" data-name="Brand Guideline Sheet">
    <g>
      <path class="cls-2" d="M140.52,62.52c1.37-.02,2.81.02,4.02.46,1.35.47,1.72,1.06.42,1.18-1.15.11-2.34.37-3.37.87"/>
      <path class="cls-1" d="M6.79,60.98c1.91,1.49,4.02,3.21,4.47,5.74.2,1.15.07,2.37-.52,3.38s-1.67,1.67-2.82,1.87c-1.38.23-2.77-.04-4.11-.35-.34-.08-.51-.5-.41-.81.11-.35.47-.49.81-.41,1.01.23,2,.43,3.08.37.35-.02.91-.15,1.26-.32.42-.21.75-.49.98-.82.13-.18.21-.34.27-.47.09-.22.16-.45.21-.69.05-.2-.01.12.02-.09,0-.05.02-.11.02-.16.01-.12.02-.24.03-.37,0-.11,0-.22,0-.34,0-.06,0-.11,0-.17,0-.05,0-.05,0,0,0-.04-.01-.09-.02-.13-.13-1-.55-1.83-1.19-2.62-.8-.99-1.76-1.75-2.75-2.53-.27-.21-.39-.58-.19-.89.18-.27.61-.4.89-.19h0Z"/>
      <path class="cls-1" d="M7.08,61.55c0,1.68-.31,3.34-.81,4.94-.5,1.59-1.13,3.13-1.66,4.71-.11.33-.48.52-.81.41s-.52-.48-.41-.81c.52-1.55,1.14-3.07,1.63-4.64s.78-3.06.77-4.68c0-.35.34-.63.67-.61.36.02.61.32.61.67h0Z"/>
      <path class="cls-1" d="M4.93,65.85c-1.17-.25-2.29-.69-3.33-1.27-.14-.07-.24-.25-.28-.4-.04-.16,0-.36.09-.49s.23-.25.4-.28c.18-.03.33,0,.49.09.21.11.42.22.63.33l-.15-.07c.81.39,1.67.68,2.55.87.15.03.3.18.37.31.07.14.1.35.04.5s-.16.3-.31.37l-.16.06c-.12.03-.23.02-.34-.02h0Z"/>
      <path class="cls-1" d="M4.4,68.92c-1.34-.06-2.68-.54-3.75-1.35-.13-.1-.24-.23-.28-.4-.04-.16,0-.36.09-.49s.23-.25.4-.28.36-.02.49.09c.34.26.7.48,1.08.66l-.15-.07c.49.23,1.01.4,1.54.5l-.17-.03c.27.05.54.08.81.09.34.02.64.32.61.67s-.31.63-.67.61h0Z"/>
      <path class="cls-3" d="M132.75,92.01l16.1,54.02c4.52-.48,8.76,1.3,12.75,4.96.52.47.17,1.34-.53,1.31l-39.26-1.78-15.69-45.51c-4.64,7.77-6.96,11.9-10.63,17.92-2.74,4.33-6.68,7.76-11.34,9.88-16.63,7.54-31.08,5.27-48.91-4.81-3.57,3.93-7.59,5.47-11.98,5-.95-.1-1.32-1.29-.63-1.95l28.23-26.7c8.68,8.7,16.41,10.1,22.86,1.55,2.92-5.09,3.97-10.6,3.68-16.4l55.35,2.52Z"/>
      <path class="cls-3" d="M55.27,26.87l-1.74,57.04c-.08,2.76,1.58,5.27,4.16,6.26l47.57,13.92c1.73.67,3.66.56,5.31-.28l42.84-17.9c2.08-1.07,3.42-3.18,3.52-5.51l1.95-58.78c.13-3.05-1.9-5.78-4.85-6.55L109.09,1.66c-1.38-.36-2.83-.26-4.15.29l-45.69,19.11c-2.35.98-3.91,3.25-3.99,5.8Z"/>
      <path class="cls-3" d="M109.42,37l48.2-19.5-48.2,19.5Z"/>
      <path class="cls-3" d="M107.97,105.15l2.07-66.4c.04-1.2-.76-2.26-1.92-2.56l-51.01-13.06"/>
      <path class="cls-1" d="M53.23,62.36c-5.59-1.26-10.45,1.38-15.28,3.85-5.27,2.7-10.85,4.37-16.8,4.62-3.56.15-7.12-.23-10.59-1.06-.8-.19-.4-1.42.4-1.22,6.29,1.51,12.92,1.34,19.13-.47,5.23-1.53,9.68-4.79,14.83-6.48,2.85-.94,5.78-1.11,8.7-.45.81.18.41,1.4-.4,1.22h0Z"/>
      <path class="cls-6" d="M143.88,33.38c-.77.74-2.25.32-2.42-.86-.29-1.93,1.98-1.15,1.67-2.62-.24-1.12-1.6-.79-2.33-.3-3.08,2.05-.5,7.55,3.6,5.83,1.84-.77,2.39-3.76.73-4.94-.72-.51-1.74-.56-1.79.48-.03.61,1.45,1.54.54,2.41Z"/>
      <path class="cls-6" d="M149.55,26.17c-1.33-.29-2.62,1.31-2.83,2.49-.51,2.96,2.61,5.16,5.27,3.6,2.35-1.37,1.36-5.57-.9-5.01-1.29.32.12,1.59.23,1.98.48,1.75-2.33,2.16-2.61.27s1.57-1.16,1.73-2.25c.06-.42-.49-.99-.89-1.08Z"/>
      <path class="cls-6" d="M130.94,36.91c-1.13,1.25,1.21,2.91,2,1.38.71-1.37-1.16-2.31-2-1.38Z"/>
      <path class="cls-6" d="M123.31,42.33c1.18-1.07-.67-2.82-1.75-1.63-1.03,1.14.65,2.63,1.75,1.63Z"/>
      <path class="cls-6" d="M127.31,38.4c-1.51-.2-1.89,2.36-.06,2.33,1.32-.02,1.62-2.12.06-2.33Z"/>
      <path class="cls-6" d="M117.83,42.18c-1.53-.15-1.65,2.02-.41,2.28,1.77.37,2.04-2.11.41-2.28Z"/>
      <path class="cls-6" d="M123.27,49.59c-7.3,6.54-10.42,16.06-9.39,25.75,1.11,10.43,8.24,16.09,18.88,13.59,9.01-2.12,16.89-10.68,19.78-19.16.44-1.28,1.27-3.87,1.34-5.13.04-.74-.38-1.27-1.17-1.28-.72,0-1.46,1.38-2.42,1.36l.23-8.89c.06-.2,3.18-1.24,3.6-2.04s-.84-1.66-1.65-1.2c-1.64-9.3-12.18-10.92-19.99-8.43-3.51,1.12-6.51,3.01-9.21,5.44ZM119.72,83.53c-4.56-5.05-3.91-15.67-1.84-21.66,3.42-9.91,14.82-18.79,25.75-15.39,3.5,1.09,5.57,3.51,6.68,6.91l-.02.22c-1.78.31-2.13,1.5-2.08,3.13l-1.45-2.46c-8.2-9.83-21.02-.77-24.97,8.3-4.02,9.22-.9,22.91,11.9,19.28,6.95-1.97,12.52-8.75,14.4-15.47.56.19.89.59,1.53.7.67.11,1.21-.04,1.86-.06-2.85,8.51-9.72,16.87-18.8,19.13-4.42,1.1-9.72.97-12.96-2.62Z"/>
      <path class="cls-4" d="M82.82,59.78c-13.38-1.14-24.3,3.49-30.96,18.07-2.73.66-5.39,2.38-7.93,5.54-2.26,3.5-2.32,7.23-.35,11.16,1.03,2.26,2.82,2.47,4.99,1.64,1.99,1.75,4.14,2.04,6.46.8,2.95,1.64,5.17.64,6.55-3.37,3.26-1.14,4.6-3.49,4.79-6.56.11-1.68-.77-3.28-2.27-4.03l-4.3-2.15c1.51-8.8,10.78-13.86,21.47-12.84"/>
      <path class="cls-4" d="M43.71,82.47l-4.33-.95c-1.78-.24-3-1.18-3.77-2.67-.86-1.22-1.79-2.14-2.81-2.68-.35-.19-.75-.28-1.14-.27-4.13.06-8.06,3.72-6.74,3.56l4.46.69c1.36.84,1.83,1.82,1.46,2.95-.31.95-1.24,1.56-2.23,1.68l-3.7.45c-1.82.65,3.7,4.4,8.49,3.08.2-.05.39-.14.57-.23,1.93-.99,2.61-1.26,5.38-.38l2.57.55c-.34-2.01.73-4.02,1.8-5.79Z"/>
      <path class="cls-4" d="M82.95,93.98c-1.13-.1-2.21-.12-3.06-.1-2.04.03-3.51-2.11-2.58-3.93.16-.31.33-.5.45-.49l5.39-.71c1.04-.74-.8-1.91-5.13-3.45-.32-.11-.67-.19-1-.17-1.34.06-2.51.55-3.55,1.4-.82.75-1.88,1.09-3.2.97l-4.17-1.03c.2,2.06-.36,4.21-1.54,5.93l2.81.85c1.91.14,4.34,1.4,7.06,3.68.26.22.56.42.89.51,4.55,1.36,10.12-3.24,7.66-3.46Z"/>
      <g>
        <path class="cls-7" d="M136.85,62.19l4.67-.1.27-.14c-.51-2.02-2.79-4.17-4.77-2.38-1.15,1.04-.27,1.41-.16,2.62ZM130.22,62.53l5.89-.31c-.25-.79-.62-1.7-1.25-2.27-2.14-1.93-4.34.33-4.63,2.58ZM141.79,61.87l-.84-.04c.02.8-.15,2.15-1.2,2.13-.97-.02-1.11-1.26-1.21-1.98-.09-.07-1.51-.01-1.59.03-.24.15-.01.75-.03,1.04-.05.81-.33,1.69-.53,2.47,1.04,1.75,3.24,1.8,4.43.13.26-.37.86-1.56.88-1.97l.08-1.81ZM131.47,66.3c.83.86,2.07,1.08,3.05.33,1.22-.93,1.69-3,1.56-4.51l-.95-.14c.52,2.98-2.37,3.18-2,.12l-2.81.13c-.29.19.09,1.96.2,2.33.17.58.55,1.32.96,1.74Z"/>
        <path class="cls-7" d="M139.43,73.22c.48.55-.74,1.09-1.15,1.28-3.27,1.49-7.68.33-10.23-2.08-.66-.63-.99-1.52-2.04-1.45-.33-.89.31-.67.78-.81.38-.11.56-.67.99-.52.64.21-.08.94-.03,1.14.19.79,2.44,2.26,3.19,2.61,2.46,1.17,4.72,1.28,7.23.23.29-.12.96-.72,1.25-.4Z"/>
        <path class="cls-7" d="M130.22,62.53c.3-2.25,2.49-4.51,4.63-2.58.63.57,1.01,1.48,1.25,2.27l-5.89.31Z"/>
        <path class="cls-7" d="M136.85,62.19c-.1-1.21-.99-1.58.16-2.62,1.99-1.79,4.26.35,4.77,2.38l-.27.14-4.67.1Z"/>
      </g>
      <ellipse class="cls-6" cx="134.15" cy="62.38" rx="1.04" ry="1.27" transform="translate(-2.52 5.73) rotate(-2.42)"/>
      <ellipse class="cls-6" cx="139.75" cy="62.25" rx="1.18" ry="1.5" transform="translate(-2.51 5.97) rotate(-2.42)"/>
      <path d="M6.49,68.48s.02.04.03.07l-.15-.35c.02.05.04.11.04.16l-.05-.39c0,.05,0,.11,0,.16l.05-.39s0,.05-.01.07c-.06.19-.07.39-.03.58,0,.19.07.38.17.54.09.17.22.31.38.41.14.13.31.22.5.26l.39.05c.26,0,.51-.07.74-.2l.3-.23c.18-.18.31-.4.38-.64,0-.02,0-.04.01-.06.02-.14.04-.28.06-.41,0-.01,0-.02,0-.03,0-.02,0-.04,0-.06,0-.15-.04-.31-.06-.45,0-.04-.01-.08-.03-.12,0,0,0-.02-.01-.03-.05-.12-.1-.25-.16-.37,0-.02-.02-.04-.03-.06-.09-.17-.22-.31-.38-.41-.14-.13-.31-.22-.5-.26-.19-.06-.39-.07-.58-.03-.19,0-.38.07-.54.17l-.3.23c-.18.18-.31.4-.38.64l-.05.39c0,.26.07.51.2.74h0Z"/>
      <path class="cls-6" d="M7.9,71.85c3.72,0,3.72-5.78,0-5.78s-3.72,5.78,0,5.78h0Z"/>
      <path class="cls-6" d="M7.75,69.58c3.72,0,3.72-5.78,0-5.78s-3.72,5.78,0,5.78h0Z"/>
      <path class="cls-6" d="M8.13,68.83c3.72,0,3.72-5.78,0-5.78s-3.72,5.78,0,5.78h0Z"/>
      <path class="cls-5" d="M158.93,58.52c1.78.11,5.55-1.87,6.8-3.7.53-.79-.06-1.87-.36-2.77-.73-2.18-.94-4.52-.23-7.14.19-.71.6-1.35,1.16-1.84l.88-.77c.16-.14.36-.28.44-.48,1.92-5.02,8.26-6.89,10.73-3.16.34.51.98.86,1.58.8,1.6-.14,3.09,1.16,3.34,2.79.1.67.75,1.23,1.4,1.39,7.66,1.93-2.04,14.85-10.44,14.98-.8.01-1.55.33-2.1.91-3.3,3.43-9.4,6.74-13.51,7.04"/>
      <g>
        <path class="cls-7" d="M166.1,43.41l3.46-1.18c.35-.13.73-.19,1.11-.17l2.56.14c.78.04,1.51.39,2.03.97l1.28,1.41c.4.44,1.01,1.44.76,1.97-1.53,3.31-3.4,5.77-.79,7.69,2.21.73,4.79-2.17,6.51-5.32"/>
        <path class="cls-6" d="M166.39,44.47c1.22-.42,2.47-.98,3.73-1.26.75-.16,1.64.01,2.4.06.84.05,1.47.14,2.08.8.5.53,1.11,1.08,1.46,1.72.33.6-.09,1.02-.38,1.6-.32.64-.64,1.28-.92,1.94-.49,1.15-.87,2.42-.5,3.66s1.4,2.35,2.7,2.45c3.23.26,5.66-3.54,7-5.96.68-1.23-1.21-2.34-1.89-1.11-.77,1.38-1.64,2.72-2.8,3.8-.39.36-.83.71-1.33.92-.19.08-.4.14-.61.16-.1,0-.21,0-.31-.01-.08-.02-.05,0,.07.07l-.18-.16c-1.8-1.89,1.04-4.55,1.49-6.48.26-1.11-.5-2.21-1.19-3-.52-.59-1.04-1.25-1.66-1.73-1.32-1.03-3.4-1.01-5.02-.99-.9,0-1.75.38-2.6.66l-2.12.72c-1.33.45-.76,2.57.58,2.11h0Z"/>
      </g>
      <path class="cls-5" d="M179.26,39.46c-2.03.69-3.72,1.13-4.51,3.24"/>
      <path class="cls-5" d="M183.81,43.05c-1.97.12-5.22,1.94-6.64,3.3"/>
      <path class="cls-6" d="M172.23,49.76c.6.15,1.23.24,1.86.27s1.25-.04,1.86-.15c.31-.05.64-.35.79-.61.17-.28.24-.7.13-1.02s-.3-.63-.61-.79l-.31-.13c-.23-.06-.47-.06-.7,0-.09.02-.19.03-.28.04l.35-.05c-.64.08-1.28.08-1.91,0l.35.05c-.28-.04-.56-.09-.83-.16-.34-.08-.71-.04-1.02.13-.27.16-.53.47-.61.79-.08.34-.06.72.13,1.02s.45.52.79.61h0Z"/>
      <path class="cls-6" d="M173.26,49.82c0,.66.31,1.23.4,1.86l-.04-.29c.06.51.02,1.02-.02,1.52-.02.26.14.59.32.78s.5.33.78.32.58-.11.78-.32.29-.47.32-.78c.05-.51.08-1.01.02-1.52-.04-.33-.09-.64-.2-.96-.08-.23-.16-.45-.19-.69l.04.29c0-.07-.01-.14-.01-.22,0-.57-.51-1.12-1.1-1.1s-1.09.48-1.1,1.1h0Z"/>
    </g>
  </g>
</svg>